<svg clip-rule="evenodd" fill-rule="evenodd" height="6.827in" image-rendering="optimizeQuality" shape-rendering="geometricPrecision" text-rendering="geometricPrecision" viewBox="0 0 6.82666 6.82666" width="6.827in" xmlns="http://www.w3.org/2000/svg"><g id="Layer_x0020_1" fill-rule="nonzero"><path d="m3.41333.826661c.529185 0 1.00828.214504 1.35509.561311.346807.346803.561311.825902.561311 1.35509 0 .400646-.123197.772764-.333811 1.08057-.208374.304543-.50261.545913-.847917.689417l-.637587 1.42361-.0970827-.0433346.0973504.0435984c-.0240787.0537638-.087185.0778307-.140949.053752-.0277323-.0124213-.047563-.0352244-.0569606-.0617756l-.63411-1.41585c-.345307-.143508-.639543-.384874-.847917-.689417-.210614-.307811-.333811-.679929-.333811-1.08057 0-.529185.214504-1.00828.561311-1.35509.346803-.346807.825902-.561311 1.35509-.561311zm1.20425.712146c-.308185-.308189-.733953-.498807-1.20425-.498807-.470299 0-.896067.190618-1.20425.498807-.308189.308185-.498807.733953-.498807 1.20425 0 .356579.109358.687346.296307.960575.19122.279472.463382.499012.782531.624748.0285118.00865748.0532638.0291457.0664016.0584764l-.0973504.0435984.0970827-.0433346.558087 1.24611.554618-1.23836c.0100118-.0282441.0317992-.0521299.0619213-.0638346l.0386299.0994252-.0383346-.0991654c.322343-.125244.59722-.346028.789917-.627657.186949-.273228.296307-.603996.296307-.960575 0-.470299-.190618-.896067-.498807-1.20425z"/><path d="m3.41333 1.8234c.253937 0 .483862.102945.650287.26937s.26937.39635.26937.650287-.102941.483858-.26937.650291c-.166425.166425-.39635.26937-.650287.26937s-.483862-.102945-.650287-.26937c-.166429-.166433-.26937-.396354-.26937-.650291s.102945-.483862.26937-.650287.39635-.26937.650287-.26937zm.499453.420205c-.127807-.127807-.304398-.206866-.499453-.206866s-.371646.0790591-.499453.206866c-.127807.127807-.206866.304398-.206866.499453s.0790551.371642.206866.499457c.127807.127807.304398.206866.499453.206866s.371646-.0790591.499453-.206866c.127811-.127815.206866-.304402.206866-.499457s-.0790591-.371646-.206866-.499453z"/></g><path d="m0 0h6.827v6.827h-6.827z" fill="none"/></svg>