<svg id="_x31_00_x25__x2C__natural_x2C__leaf_x2C__cosmetics" enable-background="new 0 0 128 128" viewBox="0 0 128 128" xmlns="http://www.w3.org/2000/svg"><g><g><path d="m113.1 77.2c4 4.7 6.1 11.3 6.3 18.9-6.7 3.6-13.5 5.1-19.5 3.9 1.1 6-.3 12.8-3.9 19.5-7.6-.2-14.2-2.4-18.8-6.3-2 5.8-6.7 10.9-13.2 14.9-6.5-4-11.1-9.1-13.2-14.9-4.7 4-11.3 6.1-18.8 6.3-3.6-6.7-5.1-13.5-3.9-19.5-6 1.1-12.8-.3-19.5-3.9.2-7.6 2.4-14.2 6.3-18.8-5.8-2.2-10.9-6.8-14.9-13.3 4-6.4 9.1-11.1 14.9-13.1-4-4.7-6.1-11.3-6.3-18.9 6.7-3.6 13.5-5.1 19.5-3.9-1.1-6 .3-12.8 3.9-19.5 7.6.2 14.2 2.4 18.8 6.3 2.1-5.8 6.7-10.9 13.2-14.9 6.4 4 11.1 9.1 13.1 14.9 4.7-4 11.3-6.1 18.8-6.3 3.6 6.7 5.1 13.5 3.9 19.5 6-1.1 12.8.3 19.5 3.9-.2 7.6-2.4 14.2-6.3 18.8 5.8 2 10.9 6.7 14.9 13.2-3.9 6.5-9 11.1-14.8 13.2z" fill="#8cc63f"/><g><g><g fill="#fff"><path d="m44.4 58.1h.3c2.2 0 2.8-1.1 2.8-2h1.9v11.6h-2.3v-8h-2.8v-1.6z"/><path d="m56 56.1c2.7 0 4 1.9 4 5.9s-1.3 6-4 6-4-1.9-4-5.9 1.3-6 4-6zm0 10c1.3 0 1.7-1.1 1.7-4.1s-.4-4.1-1.7-4.1-1.7 1.1-1.7 4.1.4 4.1 1.7 4.1z"/><path d="m65.7 56.1c2.7 0 4 1.9 4 5.9s-1.3 5.9-4 5.9-4-1.9-4-5.9 1.3-5.9 4-5.9zm0 10c1.3 0 1.7-1.1 1.7-4.1s-.4-4.1-1.7-4.1-1.7 1.1-1.7 4.1.4 4.1 1.7 4.1z"/><path d="m73.6 56.1c1.6 0 3 1.3 3 3 0 1.6-1.4 3-3 3s-3-1.3-3-3c.1-1.7 1.4-3 3-3zm0 4.3c.7 0 1.3-.6 1.3-1.3s-.6-1.3-1.3-1.3-1.3.6-1.3 1.3c.1.7.6 1.3 1.3 1.3zm1.2 7.6h-1.2l6.4-11.9h1.2zm6.5-6.1c1.6 0 3 1.3 3 3 0 1.6-1.4 3-3 3s-3-1.3-3-3 1.3-3 3-3zm0 4.3c.7 0 1.3-.6 1.3-1.3s-.6-1.3-1.3-1.3-1.3.6-1.3 1.3.6 1.3 1.3 1.3z"/></g></g><g fill="#fff"><g><path d="m33.9 72.6h2.3v11.7h-2.4l-4.8-8.3v8.3h-2.3v-11.7h2.6l4.6 8.1z"/><path d="m40.2 84.3h-2.6l4.2-11.7h2.8l4.1 11.7h-2.7l-.7-2.4h-4.3zm1.5-4.4h3l-1.4-4.6z"/><path d="m53.8 84.3h-2.4v-9.6h-3.5v-2.1h9.5v2.1h-3.5v9.6z"/><path d="m68.1 80.2c0 3.1-1.9 4.4-4.8 4.4-1.1 0-2.7-.3-3.7-1.4-.6-.7-.9-1.7-.9-2.8v-7.7h2.5v7.6c0 1.6.9 2.3 2.1 2.3 1.7 0 2.4-.8 2.4-2.2v-7.7h2.5v7.5z"/><path d="m70.5 72.6h5.9c3.1 0 3.7 2.3 3.7 3.3 0 1.3-.7 2.4-1.8 2.8 1 .4 1.5.8 1.5 3 0 1.7 0 2.1.5 2.3v.3h-2.7c-.2-.6-.3-1.2-.3-2.4 0-1.6-.1-2.2-1.9-2.2h-2.5v4.6h-2.4zm5.3 5.2c1.3 0 1.9-.4 1.9-1.6 0-.6-.3-1.5-1.7-1.5h-3v3.1z"/><path d="m83.6 84.3h-2.6l4.2-11.7h2.8l4.1 11.7h-2.7l-.7-2.4h-4.3zm1.5-4.4h3l-1.4-4.6z"/><path d="m96.2 82.2h5.8v2.1h-8.3v-11.7h2.4v9.6z"/></g><path d="m55.3 54.6c-11-31.6 27.8-25.6 30.6-29.1-3.4 24.5-23.6 21.8-27.4 20.4 1.4-3.1 3.8-9.2 18.3-13-19.1 3.1-21.2 11.1-21.5 21.7z"/></g></g></g></g></svg>