<svg id="Capa_1" enable-background="new 0 0 510 510" height="512" viewBox="0 0 510 510" width="512" xmlns="http://www.w3.org/2000/svg" xmlns:xlink="http://www.w3.org/1999/xlink"><linearGradient id="lg1"><stop offset="0" stop-color="#8bc727"/><stop offset="1" stop-color="#02905d"/></linearGradient><linearGradient id="SVGID_1_" gradientTransform="matrix(-.99 -.138 -.138 .99 663.983 60.683)" gradientUnits="userSpaceOnUse" x1="370.656" x2="327.12" xlink:href="#lg1" y1="265.786" y2="384.893"/><linearGradient id="SVGID_00000094593038191141632990000003126053807504390551_" gradientTransform="matrix(-1.173 .904 .611 .792 1076.815 155.725)" gradientUnits="userSpaceOnUse" x1="463.812" x2="646.636" xlink:href="#lg1" y1="-603.948" y2="-422.375"/><linearGradient id="lg2"><stop offset="0" stop-color="#026841" stop-opacity="0"/><stop offset="1" stop-color="#3e5959"/></linearGradient><linearGradient id="SVGID_00000129193817312182965600000003097986832965874072_" gradientTransform="matrix(-.99 -.138 -.138 .99 663.983 60.683)" gradientUnits="userSpaceOnUse" x1="479.747" x2="340.512" xlink:href="#lg2" y1="211.59" y2="558.711"/><linearGradient id="SVGID_00000073687874797022327070000005624604710710663299_" gradientTransform="matrix(-.99 -.138 -.138 .99 663.983 60.683)" gradientUnits="userSpaceOnUse" x1="529.814" x2="342.233" xlink:href="#lg2" y1="123.637" y2="522.972"/><linearGradient id="SVGID_00000159430916635240564610000006362657735492236450_" gradientTransform="matrix(-.99 -.138 -.138 .99 663.983 60.683)" gradientUnits="userSpaceOnUse" x1="568.075" x2="397.898" xlink:href="#lg2" y1="86.657" y2="389.3"/><linearGradient id="SVGID_00000091720497984344428710000015159360025401897868_" gradientTransform="matrix(-.99 -.138 -.138 .99 663.983 60.683)" gradientUnits="userSpaceOnUse" x1="600.144" x2="497.651" xlink:href="#lg2" y1="77.598" y2="358.002"/><linearGradient id="SVGID_00000168112441503375931910000001126208655472947127_" gradientTransform="matrix(-.99 -.138 -.138 .99 663.983 60.683)" gradientUnits="userSpaceOnUse" x1="513.033" x2="478.226" xlink:href="#lg2" y1="226.499" y2="8.955"/><linearGradient id="SVGID_00000002362312608790936360000009787851544468413066_" gradientUnits="userSpaceOnUse" x1="112.242" x2="197.964" xlink:href="#lg2" y1="139.391" y2="224.128"/><linearGradient id="SVGID_00000111896944859873288990000006949561231565257625_" gradientUnits="userSpaceOnUse" x1="167.654" x2="116.417" xlink:href="#lg1" y1="346.147" y2="486.325"/><linearGradient id="SVGID_00000104669295494134126560000001774227105842718378_" gradientTransform="matrix(1.037 1.057 -.714 .7 -421.999 37.156)" gradientUnits="userSpaceOnUse" x1="402.8" x2="617.968" xlink:href="#lg1" y1="-437.766" y2="-224.071"/><linearGradient id="SVGID_00000009551448086520278750000013500686225674756026_" gradientUnits="userSpaceOnUse" x1="296.045" x2="132.178" xlink:href="#lg2" y1="282.363" y2="690.893"/><linearGradient id="SVGID_00000096057651031854709350000011201000335965247381_" gradientUnits="userSpaceOnUse" x1="354.968" x2="134.203" xlink:href="#lg2" y1="178.851" y2="648.831"/><linearGradient id="SVGID_00000116210135483570855250000016436379658911123133_" gradientUnits="userSpaceOnUse" x1="399.998" x2="199.716" xlink:href="#lg2" y1="135.328" y2="491.511"/><linearGradient id="SVGID_00000150797182705575740710000003457233396794511013_" gradientUnits="userSpaceOnUse" x1="437.74" x2="317.116" xlink:href="#lg2" y1="124.667" y2="454.677"/><linearGradient id="SVGID_00000125574792658071572890000013529545836889828004_" gradientUnits="userSpaceOnUse" x1="335.219" x2="294.254" xlink:href="#lg2" y1="299.91" y2="43.88"/><g><g><path d="m286.275 396.42c.383.053.775.077 1.175.067 4.004-.09 7.176-3.41 7.085-7.414-1.537-67.729-31.545-110.383-32.822-112.166-2.332-3.257-6.862-4.005-10.118-1.673-3.253 2.33-4.004 6.854-1.68 10.109.3.423 28.69 41.047 30.12 104.058.081 3.606 2.78 6.537 6.24 7.019z" fill="url(#SVGID_1_)"/><g><path d="m9.086 24.205c80.824-2.642 327.545 11.037 270.374 283.34-2.721 12.958-16.896 25.305-30.963 26.985-41.269 4.928-123.89 2.259-187.167-79.816-81.287-105.432-.129-175.577-59.766-218.918-4.318-3.138 1.008-11.378 7.522-11.591z" fill="url(#SVGID_00000094593038191141632990000003126053807504390551_)"/><path d="m68.564 263.614c-2.434-2.869-4.852-5.81-7.234-8.9-81.287-105.432-.129-175.577-59.766-218.918-4.318-3.138 1.009-11.378 7.522-11.591 62.187-2.032 222.564 5.624 267.184 133.289l-20.453 123.636z" fill="url(#SVGID_00000129193817312182965600000003097986832965874072_)"/><path d="m216.408 211.404-187.3-17.52c-21.554-72.406 19.787-123.69-27.544-158.088-4.318-3.138 1.009-11.378 7.522-11.591 49.413-1.615 160.827 2.884 226.902 68.841z" fill="url(#SVGID_00000073687874797022327070000005624604710710663299_)"/><path d="m22.833 129.668 135.662 12.707 15.045-90.946c-21.35-9.35-43.764-15.653-65.404-19.81-39.239-7.596-75.937-8.168-99.042-7.415-6.511.204-11.84 8.455-7.545 11.59 18.058 13.131 23.23 28.689 23.868 46.966.53 14.011-1.617 29.62-2.584 46.908z" fill="url(#SVGID_00000159430916635240564610000006362657735492236450_)"/><path d="m25.417 82.761 73.141 6.828 9.578-57.97c-39.239-7.596-75.937-8.168-99.042-7.415-6.511.204-11.84 8.455-7.545 11.59 18.057 13.132 23.23 28.689 23.868 46.967z" fill="url(#SVGID_00000091720497984344428710000015159360025401897868_)"/><path d="m61.329 254.715c-81.286-105.433-.128-175.578-59.765-218.919-2.159-1.569-1.907-4.414-.3-6.893l.97-1.247s201.277 94.797 270.022 293.58c-6.056 6.977-14.927 12.239-23.759 13.293-41.27 4.929-123.891 2.26-187.168-79.814z" fill="url(#SVGID_00000168112441503375931910000001126208655472947127_)"/></g></g><path d="m9.086 24.205c80.824-2.642 327.545 11.037 270.374 283.34-2.721 12.958-16.896 25.305-30.963 26.985-41.269 4.928-123.89 2.259-187.167-79.816-81.287-105.432-.129-175.577-59.766-218.918-4.318-3.138 1.008-11.378 7.522-11.591z" fill="url(#SVGID_00000002362312608790936360000009787851544468413066_)"/><g><path d="m117.166 486.043c-.455 0-.916-.037-1.38-.112-4.652-.756-7.811-5.141-7.055-9.793 12.793-78.699 54.7-123.544 56.478-125.414 3.248-3.417 8.649-3.554 12.066-.307 3.414 3.244 3.554 8.639.316 12.056-.419.445-40.109 43.186-52.011 116.403-.682 4.189-4.304 7.167-8.414 7.167z" fill="url(#SVGID_00000111896944859873288990000006949561231565257625_)"/><g><path d="m500.729 97.197c-93.783-16.208-383.594-40.338-361.183 286.357 1.067 15.546 15.585 32.241 31.709 36.484 47.305 12.448 144.045 22.756 231.135-62.635 111.876-109.694 28.669-204.641 105.225-245.474 5.542-2.957.672-13.426-6.886-14.732z" fill="url(#SVGID_00000104669295494134126560000001774227105842718378_)"/><path d="m392.511 366.602c3.303-2.949 6.599-5.984 9.878-9.199 111.876-109.694 28.669-204.641 105.225-245.474 5.543-2.956.672-13.426-6.886-14.732-72.158-12.47-260.345-29.595-333.093 111.969l3.759 147.438z" fill="url(#SVGID_00000009551448086520278750000013500686225674756026_)"/><path d="m228.657 281.729 221.172 10.001c36.885-80.898-2.973-147.393 57.785-179.801 5.543-2.956.672-13.426-6.886-14.732-57.336-9.909-187.935-22.762-275.67 43.388z" fill="url(#SVGID_00000096057651031854709350000011201000335965247381_)"/><path d="m467.574 217.896-160.198-7.223-2.764-108.455c26.406-7.431 53.556-11.137 79.455-12.468 46.973-2.48 89.843 2.814 116.653 7.444 7.556 1.296 12.428 11.779 6.912 14.735-23.182 12.373-31.738 29.668-35.451 50.869-2.894 16.246-2.927 34.789-4.607 55.098z" fill="url(#SVGID_00000116210135483570855250000016436379658911123133_)"/><path d="m472.181 162.799-86.366-3.921-1.748-69.128c46.973-2.48 89.843 2.814 116.653 7.444 7.556 1.296 12.428 11.779 6.912 14.735-23.182 12.374-31.738 29.669-35.451 50.87z" fill="url(#SVGID_00000150797182705575740710000003457233396794511013_)"/><path d="m402.389 357.403c111.876-109.694 28.669-204.641 105.225-245.474 2.772-1.478 2.939-4.835 1.47-7.986l-.929-1.611s-250.016 77.806-362.437 298.351c5.926 9.116 15.412 16.691 25.536 19.355 47.305 12.448 144.045 22.756 231.135-62.635z" fill="url(#SVGID_00000125574792658071572890000013529545836889828004_)"/></g></g></g></svg>